<svg width="200" height="200" viewBox="0 0 200 200" fill="none" xmlns="http://www.w3.org/2000/svg">
<rect width="200" height="200" fill="#0F0F0F"/>
<path d="M119.429 84C119.429 70.5085 108.492 59.5714 95 59.5714C81.5085 59.5714 70.5714 70.5085 70.5714 84C70.5714 97.4915 81.5085 108.429 95 108.429V122C74.0132 122 57 104.987 57 84C57 63.0132 74.0132 46 95 46C115.987 46 133 63.0132 133 84C133 104.987 115.987 122 95 122V108.429C108.492 108.429 119.429 97.4915 119.429 84Z" fill="white"/>
<mask id="path-2-inside-1_14_621" fill="white">
<path d="M131.229 113.549C133.995 113.839 136.043 116.338 135.287 119.015C134.322 122.434 132.744 125.664 130.616 128.544C127.486 132.78 123.281 136.102 118.436 138.166C113.591 140.231 108.283 140.964 103.06 140.288C99.509 139.828 96.0858 138.729 92.9508 137.058C90.4964 135.749 90.1126 132.541 91.8185 130.344C93.5245 128.147 96.6781 127.822 99.2382 128.909C100.865 129.6 102.585 130.07 104.352 130.298C107.795 130.744 111.294 130.261 114.487 128.9C117.681 127.54 120.452 125.35 122.515 122.558C123.575 121.124 124.427 119.559 125.055 117.907C126.044 115.307 128.463 113.258 131.229 113.549Z"/>
</mask>
<path d="M135.287 119.015L149.723 123.092C148.267 128.246 145.888 133.117 142.68 137.458L130.616 128.544L118.552 119.63C119.6 118.212 120.377 116.622 120.852 114.938L135.287 119.015ZM130.616 128.544L142.68 137.458C137.961 143.844 131.622 148.853 124.317 151.966L118.436 138.166L112.556 124.367C114.941 123.351 117.011 121.715 118.552 119.63L130.616 128.544ZM118.436 138.166L124.317 151.966C117.013 155.079 109.009 156.183 101.134 155.163L103.06 140.288L104.985 125.412C107.556 125.744 110.17 125.384 112.556 124.367L118.436 138.166ZM103.06 140.288L101.134 155.163C95.7811 154.471 90.62 152.814 85.8937 150.294L92.9508 137.058L100.008 123.821C101.552 124.644 103.237 125.185 104.985 125.412L103.06 140.288ZM99.2382 128.909L105.103 115.103C105.476 115.262 105.872 115.37 106.278 115.423L104.352 130.298L102.427 145.174C99.2976 144.769 96.2527 143.938 93.3737 142.716L99.2382 128.909ZM104.352 130.298L106.278 115.423C107.069 115.525 107.873 115.414 108.607 115.101L114.487 128.9L120.368 142.7C114.715 145.109 108.521 145.963 102.427 145.174L104.352 130.298ZM114.487 128.9L108.607 115.101C109.34 114.789 109.977 114.285 110.451 113.644L122.515 122.558L134.579 131.472C130.927 136.414 126.021 140.291 120.368 142.7L114.487 128.9ZM122.515 122.558L110.451 113.644C110.695 113.314 110.891 112.955 111.035 112.575L125.055 117.907L139.076 123.239C137.964 126.162 136.455 128.934 134.579 131.472L122.515 122.558ZM125.055 117.907L111.035 112.575C113.595 105.844 121.149 97.4055 132.798 98.6308L131.229 113.549L129.66 128.466C132.586 128.774 134.976 127.762 136.443 126.668C137.82 125.641 138.632 124.406 139.076 123.239L125.055 117.907ZM92.9508 137.058L85.8937 150.294C73.6643 143.773 73.7052 129.213 79.9712 121.144L91.8185 130.344L103.666 139.544C105.303 137.436 106.093 134.653 105.652 131.768C105.186 128.717 103.29 125.571 100.008 123.821L92.9508 137.058ZM91.8185 130.344L79.9712 121.144C87.1553 111.893 98.4747 112.288 105.103 115.103L99.2382 128.909L93.3737 142.716C94.5229 143.204 95.9761 143.474 97.6706 143.192C99.4761 142.891 101.861 141.868 103.666 139.544L91.8185 130.344ZM135.287 119.015L120.852 114.938C119.841 118.517 120.797 122.064 122.675 124.514C124.451 126.83 127.006 128.187 129.66 128.466L131.229 113.549L132.798 98.6308C142.958 99.6995 153.49 109.754 149.723 123.092L135.287 119.015Z" fill="white" mask="url(#path-2-inside-1_14_621)"/>
<mask id="path-4-inside-2_14_621" fill="white">
<path d="M134.401 135.738C136.337 135.98 137.74 137.761 137.173 139.628C136.449 142.013 135.298 144.258 133.766 146.249C131.513 149.178 128.518 151.451 125.091 152.833C121.664 154.216 117.93 154.657 114.275 154.112C111.791 153.741 109.404 152.923 107.228 151.708C105.524 150.756 105.298 148.501 106.525 146.983C107.752 145.465 109.968 145.28 111.749 146.078C112.881 146.584 114.081 146.937 115.318 147.122C117.727 147.481 120.188 147.19 122.447 146.279C124.706 145.368 126.68 143.87 128.165 141.939C128.928 140.948 129.547 139.861 130.011 138.711C130.74 136.901 132.464 135.496 134.401 135.738Z"/>
</mask>
<path d="M115.318 147.122L117.532 132.286L115.318 147.122ZM128.165 141.939L116.277 132.793L128.165 141.939ZM130.011 138.711L116.096 133.108L130.011 138.711ZM137.173 139.628L151.527 143.985C150.279 148.096 148.295 151.964 145.655 155.396L133.766 146.249L121.878 137.102C122.301 136.552 122.62 135.931 122.82 135.272L137.173 139.628ZM133.766 146.249L145.655 155.396C141.771 160.444 136.609 164.362 130.703 166.744L125.091 152.833L119.479 138.922C120.427 138.54 121.255 137.912 121.878 137.102L133.766 146.249ZM125.091 152.833L130.703 166.744C124.796 169.127 118.36 169.887 112.061 168.947L114.275 154.112L116.489 139.276C117.5 139.427 118.532 139.305 119.479 138.922L125.091 152.833ZM114.275 154.112L112.061 168.947C107.779 168.308 103.666 166.899 99.9148 164.804L107.228 151.708L114.541 138.611C115.143 138.947 115.802 139.173 116.489 139.276L114.275 154.112ZM111.749 146.078L117.881 132.388C117.771 132.339 117.653 132.304 117.532 132.286L115.318 147.122L113.104 161.957C110.509 161.57 107.991 160.83 105.618 159.767L111.749 146.078ZM115.318 147.122L117.532 132.286C117.297 132.251 117.056 132.279 116.836 132.368L122.447 146.279L128.059 160.19C123.32 162.101 118.158 162.712 113.104 161.957L115.318 147.122ZM122.447 146.279L116.836 132.368C116.615 132.457 116.422 132.604 116.277 132.793L128.165 141.939L140.054 151.086C136.938 155.136 132.797 158.279 128.059 160.19L122.447 146.279ZM128.165 141.939L116.277 132.793C116.202 132.889 116.142 132.996 116.096 133.108L130.011 138.711L143.925 144.314C142.953 146.727 141.654 149.007 140.054 151.086L128.165 141.939ZM130.011 138.711L116.096 133.108C118.476 127.198 125.46 119.505 136.26 120.854L134.401 135.738L132.542 150.622C135.874 151.038 138.672 149.949 140.485 148.651C142.207 147.418 143.303 145.857 143.925 144.314L130.011 138.711ZM107.228 151.708L99.9148 164.804C88.5389 158.452 88.9586 144.855 94.8586 137.554L106.525 146.983L118.191 156.411C121.638 152.147 122.509 143.061 114.541 138.611L107.228 151.708ZM106.525 146.983L94.8586 137.554C101.7 129.09 112.066 129.784 117.881 132.388L111.749 146.078L105.618 159.767C107.136 160.447 109.009 160.81 111.104 160.503C113.31 160.18 116.081 159.023 118.191 156.411L106.525 146.983ZM137.173 139.628L122.82 135.272C120.169 144.004 127.101 149.943 132.542 150.622L134.401 135.738L136.26 120.854C145.574 122.017 155.311 131.517 151.527 143.985L137.173 139.628Z" fill="white" mask="url(#path-4-inside-2_14_621)"/>
</svg>
