<svg width="219" height="48" viewBox="0 0 219 48" fill="none" xmlns="http://www.w3.org/2000/svg">
<g id="LOGO">
<g id="IC">
<path id="Ellipse 1 (Stroke)" d="M24.6805 15.0229C24.6805 9.68917 20.3566 5.36532 15.0229 5.36532C9.68917 5.36532 5.36532 9.68917 5.36532 15.0229C5.36532 20.3566 9.68917 24.6805 15.0229 24.6805V30.0458C6.72598 30.0458 0 23.3198 0 15.0229C0 6.72598 6.72598 0 15.0229 0C23.3198 0 30.0458 6.72598 30.0458 15.0229C30.0458 23.3198 23.3198 30.0458 15.0229 30.0458V24.6805C20.3566 24.6805 24.6805 20.3566 24.6805 15.0229Z" fill="#595959"/>
<g id="Ellipse 4">
<mask id="path-2-inside-1_1406_1288" fill="white">
<path d="M29.4721 26.7319C30.5667 26.847 31.3773 27.8359 31.0782 28.8952C30.696 30.2482 30.0715 31.5267 29.2295 32.6662C27.9909 34.3424 26.3268 35.6572 24.4094 36.4743C22.4921 37.2914 20.3912 37.5812 18.3242 37.3137C16.9191 37.1318 15.5644 36.6969 14.3237 36.0354C13.3524 35.5175 13.2005 34.248 13.8756 33.3786C14.5507 32.5092 15.7988 32.3805 16.8119 32.8109C17.4555 33.0843 18.1362 33.27 18.8359 33.3606C20.1982 33.5369 21.5829 33.3459 22.8467 32.8073C24.1104 32.2687 25.2073 31.4022 26.0236 30.2974C26.4429 29.73 26.7803 29.1103 27.0289 28.4567C27.4202 27.4279 28.3774 26.6167 29.4721 26.7319Z"/>
</mask>
<path d="M29.4721 26.7319C30.5667 26.847 31.3773 27.8359 31.0782 28.8952C30.696 30.2482 30.0715 31.5267 29.2295 32.6662C27.9909 34.3424 26.3268 35.6572 24.4094 36.4743C22.4921 37.2914 20.3912 37.5812 18.3242 37.3137C16.9191 37.1318 15.5644 36.6969 14.3237 36.0354C13.3524 35.5175 13.2005 34.248 13.8756 33.3786C14.5507 32.5092 15.7988 32.3805 16.8119 32.8109C17.4555 33.0843 18.1362 33.27 18.8359 33.3606C20.1982 33.5369 21.5829 33.3459 22.8467 32.8073C24.1104 32.2687 25.2073 31.4022 26.0236 30.2974C26.4429 29.73 26.7803 29.1103 27.0289 28.4567C27.4202 27.4279 28.3774 26.6167 29.4721 26.7319Z" fill="#202020" stroke="#0F0F0F" stroke-width="30" mask="url(#path-2-inside-1_1406_1288)"/>
</g>
<g id="Ellipse 3">
<mask id="path-3-inside-2_1406_1288" fill="white">
<path d="M30.7272 35.5132C31.4936 35.6089 32.0487 36.3136 31.8244 37.0527C31.5379 37.9966 31.0823 38.8849 30.4761 39.6729C29.5844 40.8319 28.3991 41.7315 27.0429 42.2786C25.6867 42.8256 24.2089 43.0003 22.7626 42.7844C21.7794 42.6377 20.8349 42.3141 19.9736 41.8332C19.2993 41.4567 19.21 40.564 19.6955 39.9633C20.181 39.3626 21.0582 39.2894 21.7631 39.6051C22.2109 39.8056 22.6858 39.9452 23.1754 40.0183C24.1287 40.1605 25.1027 40.0454 25.9966 39.6848C26.8905 39.3242 27.6717 38.7313 28.2595 37.9674C28.5613 37.5751 28.8065 37.145 28.9898 36.6898C29.2783 35.9734 29.9608 35.4175 30.7272 35.5132Z"/>
</mask>
<path d="M30.7272 35.5132C31.4936 35.6089 32.0487 36.3136 31.8244 37.0527C31.5379 37.9966 31.0823 38.8849 30.4761 39.6729C29.5844 40.8319 28.3991 41.7315 27.0429 42.2786C25.6867 42.8256 24.2089 43.0003 22.7626 42.7844C21.7794 42.6377 20.8349 42.3141 19.9736 41.8332C19.2993 41.4567 19.21 40.564 19.6955 39.9633C20.181 39.3626 21.0582 39.2894 21.7631 39.6051C22.2109 39.8056 22.6858 39.9452 23.1754 40.0183C24.1287 40.1605 25.1027 40.0454 25.9966 39.6848C26.8905 39.3242 27.6717 38.7313 28.2595 37.9674C28.5613 37.5751 28.8065 37.145 28.9898 36.6898C29.2783 35.9734 29.9608 35.4175 30.7272 35.5132Z" fill="#202020" stroke="#0F0F0F" stroke-width="30" mask="url(#path-3-inside-2_1406_1288)"/>
</g>
</g>
<g id="TopGEO">
<path id="Vector" d="M202.905 23.8168C202.905 26.0739 202.539 28.1698 201.806 30.1044C201.073 32.0098 200.047 33.6806 198.728 35.1169C197.409 36.5533 195.841 37.6672 194.024 38.4586C192.206 39.2501 190.228 39.6458 188.088 39.6458C185.919 39.6458 183.925 39.2501 182.108 38.4586C180.32 37.6672 178.766 36.5533 177.447 35.1169C176.128 33.6806 175.102 32.0098 174.369 30.1044C173.636 28.1698 173.27 26.0739 173.27 23.8168C173.27 21.5304 173.636 19.4345 174.369 17.5292C175.102 15.5945 176.128 13.9237 177.447 12.5166C178.766 11.0803 180.32 9.96641 182.108 9.17496C183.925 8.38351 185.919 7.98778 188.088 7.98778C190.228 7.98778 192.206 8.38351 194.024 9.17496C195.841 9.96641 197.409 11.0803 198.728 12.5166C200.047 13.9237 201.073 15.5945 201.806 17.5292C202.539 19.4345 202.905 21.5304 202.905 23.8168ZM199.124 23.8168C199.124 21.4131 198.64 19.2879 197.673 17.4412C196.735 15.5945 195.445 14.1435 193.804 13.0882C192.162 12.033 190.257 11.5053 188.088 11.5053C185.919 11.5053 183.999 12.033 182.328 13.0882C180.686 14.1435 179.396 15.5945 178.458 17.4412C177.52 19.2879 177.051 21.4131 177.051 23.8168C177.051 26.1911 177.52 28.3163 178.458 30.1924C179.396 32.0391 180.686 33.4901 182.328 34.5453C183.999 35.6006 185.919 36.1282 188.088 36.1282C190.257 36.1282 192.162 35.6006 193.804 34.5453C195.445 33.4901 196.735 32.0391 197.673 30.1924C198.64 28.3163 199.124 26.1911 199.124 23.8168Z" fill="#202020"/>
<path id="Vector_2" d="M153.602 8.42747H169.255C169.753 8.42747 170.179 8.5887 170.53 8.91114C170.882 9.23358 171.058 9.64397 171.058 10.1423C171.058 10.6406 170.882 11.051 170.53 11.3734C170.179 11.6666 169.753 11.8131 169.255 11.8131H155.097L155.493 11.0656V22.1899L155.053 21.7063H167.277C167.775 21.7063 168.2 21.8675 168.552 22.1899C168.903 22.5124 169.079 22.9227 169.079 23.4211C169.079 23.9194 168.903 24.3298 168.552 24.6522C168.2 24.9453 167.775 25.0919 167.277 25.0919H155.185L155.493 24.6962V36.0843L155.229 35.7765H169.255C169.753 35.7765 170.179 35.9524 170.53 36.3041C170.882 36.6559 171.058 37.0516 171.058 37.4913C171.058 37.9896 170.882 38.4 170.53 38.7224C170.179 39.0449 169.753 39.2061 169.255 39.2061H153.602C153.104 39.2061 152.679 39.0302 152.327 38.6785C152.004 38.3267 151.843 37.9017 151.843 37.4034V10.1863C151.843 9.68793 152.004 9.27755 152.327 8.95511C152.679 8.60335 153.104 8.42747 153.602 8.42747Z" fill="#202020"/>
<path id="Vector_3" d="M137.056 39.6458C134.799 39.6458 132.703 39.2501 130.768 38.4586C128.863 37.6379 127.177 36.5093 125.712 35.073C124.275 33.6366 123.147 31.9658 122.326 30.0605C121.534 28.1258 121.139 26.0446 121.139 23.8168C121.139 21.5597 121.534 19.4785 122.326 17.5731C123.147 15.6385 124.275 13.953 125.712 12.5166C127.177 11.0803 128.863 9.96641 130.768 9.17496C132.703 8.38351 134.799 7.98778 137.056 7.98778C138.551 7.98778 139.987 8.16366 141.365 8.51542C142.772 8.83786 144.047 9.35083 145.19 10.0543C145.483 10.2009 145.688 10.4061 145.806 10.6699C145.952 10.9337 146.025 11.2122 146.025 11.5053C146.025 12.0037 145.85 12.4287 145.498 12.7805C145.175 13.1322 144.794 13.3081 144.355 13.3081C144.179 13.3081 144.003 13.2788 143.827 13.2201C143.68 13.1615 143.519 13.1029 143.343 13.0443C142.435 12.5753 141.453 12.2089 140.397 11.945C139.342 11.6519 138.228 11.5053 137.056 11.5053C134.74 11.5053 132.659 12.0476 130.812 13.1322C128.995 14.2168 127.558 15.6824 126.503 17.5292C125.448 19.3759 124.92 21.4718 124.92 23.8168C124.92 26.1325 125.448 28.2284 126.503 30.1044C127.558 31.9511 128.995 33.4168 130.812 34.5014C132.659 35.5859 134.74 36.1282 137.056 36.1282C138.228 36.1282 139.43 35.967 140.661 35.6446C141.922 35.3221 142.992 34.9117 143.871 34.4134L143.563 35.4687V26.1911L144.267 26.8067H137.539C137.041 26.8067 136.616 26.6455 136.264 26.323C135.942 25.9713 135.781 25.5463 135.781 25.0479C135.781 24.5496 135.942 24.1392 136.264 23.8168C136.616 23.465 137.041 23.2892 137.539 23.2892H145.542C146.069 23.2892 146.494 23.465 146.817 23.8168C147.139 24.1685 147.301 24.5936 147.301 25.0919V35.2488C147.301 35.6006 147.213 35.9084 147.037 36.1722C146.89 36.436 146.685 36.6559 146.421 36.8317C145.102 37.6818 143.636 38.3707 142.024 38.8983C140.441 39.3966 138.785 39.6458 137.056 39.6458Z" fill="#202020"/>
<path id="Vector_4" d="M108.339 15.6824C110.391 15.6824 112.209 16.1954 113.792 17.2214C115.404 18.2473 116.679 19.6543 117.617 21.4424C118.555 23.2012 119.024 25.2531 119.024 27.5982C119.024 29.9432 118.555 32.0244 117.617 33.8418C116.679 35.6299 115.418 37.0369 113.836 38.0629C112.253 39.0889 110.465 39.6018 108.471 39.6018C107.357 39.6018 106.302 39.426 105.306 39.0742C104.309 38.7224 103.429 38.2681 102.667 37.7111C101.905 37.1249 101.275 36.5093 100.777 35.8644C100.308 35.2195 100.015 34.6186 99.8973 34.0617L101.084 33.4901V45.7576C101.084 46.4024 100.865 46.9301 100.425 47.3405C100.015 47.7801 99.5015 48 98.886 48C98.2411 48 97.7135 47.7801 97.3031 47.3405C96.8927 46.9301 96.6875 46.4024 96.6875 45.7576V18.2327C96.6875 17.6171 96.8927 17.0895 97.3031 16.6498C97.7135 16.2101 98.2411 15.9902 98.886 15.9902C99.5015 15.9902 100.015 16.2101 100.425 16.6498C100.865 17.0895 101.084 17.6171 101.084 18.2327V21.2666L100.381 20.8708C100.469 20.3139 100.747 19.7423 101.216 19.156C101.685 18.5405 102.272 17.9689 102.975 17.4412C103.708 16.9136 104.529 16.4885 105.437 16.1661C106.375 15.8437 107.343 15.6824 108.339 15.6824ZM107.856 19.7276C106.449 19.7276 105.218 20.0794 104.162 20.7829C103.136 21.4571 102.33 22.3805 101.744 23.553C101.158 24.7255 100.865 26.0739 100.865 27.5982C100.865 29.0931 101.158 30.4562 101.744 31.6873C102.33 32.8892 103.136 33.8418 104.162 34.5453C105.218 35.2195 106.449 35.5566 107.856 35.5566C109.233 35.5566 110.435 35.2195 111.461 34.5453C112.487 33.8418 113.293 32.8892 113.88 31.6873C114.495 30.4562 114.803 29.0931 114.803 27.5982C114.803 26.1032 114.495 24.7695 113.88 23.5969C113.293 22.3951 112.487 21.4571 111.461 20.7829C110.435 20.0794 109.233 19.7276 107.856 19.7276Z" fill="#595959"/>
<path id="Vector_5" d="M93.4699 27.6421C93.4699 29.9872 92.9569 32.0684 91.9309 33.8858C90.905 35.6739 89.5126 37.0809 87.7538 38.1069C85.995 39.1328 84.0164 39.6458 81.8179 39.6458C79.6195 39.6458 77.6408 39.1328 75.8821 38.1069C74.1233 37.0809 72.7163 35.6739 71.661 33.8858C70.635 32.0684 70.1221 29.9872 70.1221 27.6421C70.1221 25.2678 70.635 23.1866 71.661 21.3985C72.7163 19.5811 74.1233 18.1594 75.8821 17.1334C77.6408 16.0782 79.6195 15.5505 81.8179 15.5505C84.0164 15.5505 85.995 16.0782 87.7538 17.1334C89.5126 18.1594 90.905 19.5811 91.9309 21.3985C92.9569 23.1866 93.4699 25.2678 93.4699 27.6421ZM89.0729 27.6421C89.0729 26.0299 88.7505 24.6376 88.1056 23.465C87.4607 22.2632 86.5813 21.3252 85.4674 20.651C84.3828 19.9475 83.1663 19.5957 81.8179 19.5957C80.4696 19.5957 79.2384 19.9475 78.1245 20.651C77.0106 21.3252 76.1312 22.2632 75.4863 23.465C74.8415 24.6376 74.519 26.0299 74.519 27.6421C74.519 29.1957 74.8415 30.5734 75.4863 31.7753C76.1312 32.9771 77.0106 33.9151 78.1245 34.5893C79.2384 35.2635 80.4696 35.6006 81.8179 35.6006C83.1663 35.6006 84.3828 35.2635 85.4674 34.5893C86.5813 33.9151 87.4607 32.9771 88.1056 31.7753C88.7505 30.5734 89.0729 29.1957 89.0729 27.6421Z" fill="#595959"/>
<path id="Vector_6" d="M61.6346 39.2061C60.9311 39.2061 60.3595 39.0009 59.9198 38.5905C59.5095 38.1508 59.3043 37.6085 59.3043 36.9637V10.6259H64.009V36.9637C64.009 37.6085 63.7745 38.1508 63.3055 38.5905C62.8658 39.0009 62.3088 39.2061 61.6346 39.2061ZM51.6536 12.6485C51.038 12.6485 50.5104 12.458 50.0707 12.0769C49.631 11.6666 49.4111 11.1389 49.4111 10.494C49.4111 9.87847 49.631 9.38015 50.0707 8.99908C50.5104 8.61801 51.038 8.42747 51.6536 8.42747H71.6597C72.2753 8.42747 72.7882 8.63267 73.1986 9.04305C73.6383 9.42412 73.8582 9.92244 73.8582 10.538C73.8582 11.1829 73.6383 11.6959 73.1986 12.0769C72.7882 12.458 72.2753 12.6485 71.6597 12.6485H51.6536Z" fill="#595959"/>
</g>
<g id="AI">
<path id="Vector_7" d="M218.495 20.1644C218.495 20.3637 218.419 20.5337 218.266 20.6744C218.126 20.8151 217.956 20.8855 217.756 20.8855C217.533 20.8855 217.358 20.8151 217.229 20.6744C217.1 20.5337 217.035 20.3637 217.035 20.1644V9.29514C217.035 9.08409 217.106 8.91407 217.246 8.7851C217.387 8.64439 217.563 8.57404 217.774 8.57404C217.973 8.57404 218.143 8.64439 218.284 8.7851C218.425 8.91407 218.495 9.08409 218.495 9.29514V20.1644Z" fill="#595959"/>
<path id="Vector_8" d="M210.676 10.4032L206.543 20.4634C206.496 20.6041 206.414 20.7155 206.297 20.7976C206.18 20.8796 206.057 20.9207 205.928 20.9207C205.705 20.9207 205.541 20.862 205.435 20.7448C205.33 20.6275 205.277 20.4868 205.277 20.3227C205.265 20.2406 205.277 20.1527 205.312 20.0589L209.867 8.97856C209.926 8.81441 210.014 8.69716 210.131 8.62681C210.26 8.54473 210.401 8.50955 210.553 8.52128C210.706 8.52128 210.84 8.56232 210.958 8.64439C211.087 8.72647 211.175 8.83786 211.222 8.97856L215.759 19.9533C215.794 20.0471 215.812 20.1409 215.812 20.2347C215.812 20.4458 215.742 20.6158 215.601 20.7448C215.46 20.862 215.302 20.9207 215.126 20.9207C214.985 20.9207 214.856 20.8796 214.739 20.7976C214.622 20.7155 214.534 20.5982 214.475 20.4458L210.289 10.3856L210.676 10.4032ZM207.423 17.5966L208.021 16.2247H213.244L213.508 17.5966H207.423Z" fill="#595959"/>
</g>
</g>
</svg>
